<svg xmlns="http://www.w3.org/2000/svg" width="84" height="85" viewBox="0 0 84 85" fill="none"><g clip-path="url(#clip0_51_150)"><path d="M0 74.5436C0.234062 74.191 0.505314 73.8784 0.945002 73.803C3.36656 73.4017 5.7575 72.7964 8.21844 72.6501C9.695 72.5614 11.0972 72.9494 12.4447 73.5059C19.1982 76.2996 25.9452 79.1081 32.6856 81.9314C34.0703 82.5145 35.3303 82.5035 36.6844 81.8072C44.5769 77.7467 52.481 73.7092 60.3969 69.6945C60.5172 69.6324 60.6419 69.5725 60.76 69.506C61.5912 69.0382 61.9237 68.3021 61.6656 67.5105C61.3812 66.6524 60.6922 66.209 59.7297 66.4307C57.6231 66.903 55.5297 67.4307 53.4319 67.9406C49.7678 68.8275 46.1059 69.7366 42.4397 70.6213C41.9344 70.7432 41.5997 70.9007 41.4334 71.5082C41.2811 72.0643 41.02 72.5838 40.6657 73.0356C40.3114 73.4875 39.8711 73.8625 39.3709 74.1385C38.8707 74.4144 38.3209 74.5856 37.7542 74.6418C37.1875 74.6981 36.6154 74.6383 36.0719 74.466C31.6969 73.1645 27.3219 71.8208 22.9644 70.4749C21.9844 70.1756 21.5731 69.5127 21.805 68.7012C22.0237 67.9296 22.7456 67.6347 23.7737 67.9406C27.8571 69.1705 31.9404 70.4062 36.0237 71.6479C36.4391 71.7835 36.8715 71.8581 37.3078 71.8696C38.0691 71.8696 38.6575 71.6035 38.9003 70.8341C39.1191 70.098 38.7056 69.6324 38.1544 69.251C36.3956 68.033 34.6354 66.8165 32.8737 65.6015C28.7904 62.793 24.6983 59.9808 20.5975 57.1649C16.8787 54.6328 12.8297 54.1339 8.51593 55.0674C6.35469 55.5352 4.16719 55.8877 2.00594 56.36C1.19 56.5374 0.55781 56.3911 0.0109348 55.7813V54.6195C0.135993 54.3869 0.314327 54.1882 0.530927 54.04C0.747526 53.8919 0.996056 53.7986 1.25562 53.7681C4.34656 53.2182 7.39812 52.4377 10.5175 52.0564C14.4353 51.5708 18.1344 52.3734 21.4047 54.553C27.6128 58.6918 33.7546 62.9275 39.83 67.26C40.9237 68.0404 41.7309 68.067 42.8466 67.7877C48.2541 66.4366 53.6688 65.1063 59.0909 63.7966C60.8716 63.3709 62.4247 63.8831 63.5316 65.3797C64.6384 66.8764 64.6866 68.4994 63.8159 70.1379C63.3784 70.9716 62.6609 71.5104 61.8341 71.9317C55.2424 75.2886 48.6544 78.6499 42.07 82.0157C40.0466 83.0445 38.0931 84.2329 35.945 84.9801H33.32C32.8344 84.7983 32.3444 84.6298 31.8653 84.4325C25.0957 81.624 18.3276 78.811 11.5609 75.9937C10.0953 75.3609 8.4818 75.1655 6.91031 75.4305C5.26969 75.7121 3.62906 75.9648 1.99281 76.3041C1.17906 76.4726 0.542497 76.324 0.0240593 75.6855L0 74.5436Z" fill="#0C4264"/><path d="M84 10.4788C83.7638 10.8313 83.4925 11.1439 83.055 11.2215C80.6488 11.6184 78.295 12.2304 75.8603 12.3634C74.2744 12.4499 72.7716 12.0286 71.3191 11.4255C64.6691 8.66285 58.0234 5.9157 51.38 3.11533C49.9341 2.50559 48.6391 2.53441 47.2238 3.26167C39.3575 7.31478 31.4759 11.3383 23.5791 15.3323C22.8463 15.7048 22.2447 16.146 22.2447 17.044C22.2447 18.1859 23.2225 18.8688 24.4475 18.5739C28.4331 17.6116 32.4122 16.6272 36.3956 15.6516C38.1741 15.2081 39.9503 14.7647 41.7353 14.3567C41.933 14.3271 42.1165 14.2355 42.2601 14.0947C42.4037 13.9539 42.5001 13.771 42.5359 13.5718C43.2403 11.1085 45.57 9.84464 48.0047 10.5808C52.2995 11.8727 56.5914 13.1742 60.8803 14.4853C60.9591 14.5097 61.0356 14.5363 61.1144 14.5651C62.0244 14.8889 62.4094 15.5296 62.1753 16.3278C61.9566 17.0507 61.2566 17.3855 60.3684 17.1238C58.2969 16.5141 56.2319 15.8755 54.1647 15.2503C52.0166 14.5999 49.8699 13.9502 47.7247 13.3013C47.2799 13.162 46.8123 13.113 46.3488 13.1572C45.7844 13.2126 45.3403 13.4831 45.1763 14.0441C45.0122 14.6051 45.0888 15.2126 45.6313 15.5962C46.41 16.1571 47.2019 16.7048 47.9938 17.2458C50.174 18.7446 52.3505 20.2376 54.5234 21.7246C54.708 21.8436 54.8861 21.9723 55.0572 22.1104C55.6872 22.6492 55.8053 23.3321 55.3853 23.9441C55.2902 24.0894 55.1672 24.2138 55.0237 24.31C54.8802 24.4062 54.7191 24.4722 54.5499 24.504C54.3808 24.5359 54.207 24.5329 54.039 24.4954C53.871 24.4579 53.7122 24.3865 53.5719 24.2855C52.7144 23.7445 51.8853 23.1547 51.0497 22.5805L44.4763 18.0484C44.4268 18.0242 44.3811 17.9928 44.3406 17.9553C43.4 16.6826 42.2231 16.9553 40.9238 17.2901C35.6234 18.6316 30.3078 19.9065 24.9922 21.1991C23.2422 21.6226 21.7241 21.1614 20.5756 19.7446C18.8038 17.5606 19.4972 14.472 22.05 13.1505C26.0159 11.0996 30.0016 9.08191 33.9784 7.05092C37.9553 5.01994 41.9956 2.99116 45.9747 0.902526C48.1184 -0.22383 50.2009 -0.274827 52.43 0.680803C58.8831 3.40357 65.3756 6.03986 71.8288 8.78259C73.7903 9.65771 75.9742 9.88349 78.0697 9.4278C79.3822 9.144 80.7144 8.99766 82.0203 8.70942C82.8341 8.52982 83.4706 8.68725 83.9891 9.32803L84 10.4788Z" fill="#0C4264"/><path d="M84 30.396C83.8739 30.6277 83.6954 30.8258 83.4789 30.9738C83.2625 31.1219 83.0145 31.2156 82.7553 31.2474C79.6666 31.7951 76.615 32.5777 73.4978 32.9569C69.5822 33.4403 65.9422 32.5556 62.6041 30.478C60.8147 29.3694 59.1041 28.1167 57.3716 26.9127C56.5359 26.3318 56.3434 25.6156 56.7853 24.9482C57.2272 24.2808 58.0234 24.1633 58.8788 24.7265C60.1541 25.5801 61.4403 26.4227 62.6741 27.3384C66.5569 30.2208 70.84 30.9569 75.4994 29.937C77.6584 29.4647 79.8459 29.1166 82.0072 28.6466C82.8209 28.467 83.4531 28.6155 84 29.2253V30.396Z" fill="#0C4264"/><path d="M25.9547 42.5198C25.9502 46.2029 27.19 49.7764 29.4678 52.646C29.5531 52.7546 29.6406 52.8677 29.7238 52.9697C30.38 53.8277 30.38 54.5772 29.7609 55.0982C29.1419 55.6193 28.3369 55.4929 27.65 54.6193C27.0827 53.912 26.5568 53.1717 26.075 52.4021C19.0859 41.0653 25.9503 25.9172 39.0031 23.8596C49.4725 22.2055 59.0384 29.3894 60.5434 40.0454C61.95 49.9853 54.8559 59.6369 45.0297 61.1823C40.9 61.8586 36.6658 61.118 32.9984 59.0782C32.6832 58.9129 32.3772 58.7301 32.0819 58.5305C31.3644 58.0383 31.1741 57.3243 31.5612 56.6791C31.9484 56.0339 32.69 55.8344 33.4272 56.2623C34.6039 56.9668 35.8503 57.5443 37.1459 57.9851C46.5806 61.0892 56.6541 54.6259 57.9031 44.6573C59.0297 35.6641 52.9288 27.6222 44.0847 26.4427C35.3084 25.2742 27.2409 31.5423 26.1144 40.3802C26.0179 41.0894 25.9645 41.804 25.9547 42.5198Z" fill="#0C4264"/><path d="M45.3359 29.241C45.7542 29.2483 46.1645 29.3583 46.5318 29.5614C46.899 29.7645 47.2122 30.0548 47.4446 30.4074C47.677 30.76 47.8217 31.1644 47.8663 31.586C47.9109 32.0077 47.854 32.434 47.7006 32.8285C47.075 34.538 46.3706 36.2208 45.6466 37.8904C45.3775 38.5135 45.4059 38.8438 46.06 39.1831C47.2959 39.8283 48.4925 40.56 49.6781 41.2983C51.4959 42.4335 51.7169 44.3115 50.1747 45.8082C47.0189 48.8709 43.8419 51.9115 40.6437 54.9299C38.9703 56.5041 36.5969 55.7547 36.1331 53.5729C35.9953 52.9344 36.2009 52.3668 36.4241 51.7991C37.0584 50.2094 37.695 48.6196 38.3753 47.052C38.6181 46.4933 38.5941 46.194 38.0078 45.8813C36.7544 45.2162 35.5294 44.4734 34.3197 43.7195C32.4997 42.5865 32.2766 40.7063 33.8144 39.2141C36.9709 36.1521 40.1581 33.1234 43.3366 30.0813C43.8855 29.5727 44.593 29.2754 45.3359 29.241ZM45.1544 32.2054C45.0334 32.2466 44.9169 32.3001 44.8066 32.3651C41.8432 35.1928 38.8792 38.019 35.9144 40.8438C35.4769 41.2606 35.6409 41.4402 36.0587 41.6797C37.555 42.54 39.0454 43.4121 40.53 44.296C41.6369 44.9612 41.8425 45.5665 41.3459 46.786C40.6591 48.4733 39.9481 50.1495 39.2591 51.8368C39.1431 52.1162 38.9572 52.3911 38.9987 52.8545C42.105 49.8834 45.1237 46.9944 48.1381 44.1186C48.5144 43.7617 48.3569 43.5887 48.0047 43.3869C46.6047 42.5784 45.2083 41.7617 43.8156 40.9369C42.21 39.9946 42.0809 39.5777 42.8028 37.8572C43.5706 36.0324 44.3275 34.2009 45.1566 32.2054H45.1544Z" fill="#0C4264"/></g><defs><clipPath id="clip0_51_150"><rect width="84" height="85" fill="white"/></clipPath></defs></svg>