<svg xmlns="http://www.w3.org/2000/svg" width="90" height="84" viewBox="0 0 90 84" fill="none"><g clip-path="url(#clip0_14_759)"><path d="M51.192 31.6297C52.5051 32.4554 53.645 33.191 54.8048 33.8816C56.009 34.6072 56.5481 35.6707 56.5357 37.0669C56.5357 41.1254 56.5357 45.1839 56.5357 49.2399C56.5468 49.5204 56.5227 49.8012 56.464 50.0756C56.2637 50.8563 55.7469 51.3467 54.9531 51.3567C54.1594 51.3667 53.6178 50.8963 53.4175 50.1056C53.3424 49.7396 53.3117 49.3657 53.326 48.9922C53.326 45.2139 53.3087 41.4381 53.326 37.6624C53.3511 37.3719 53.2902 37.0804 53.1511 36.8251C53.0119 36.5698 52.8008 36.3621 52.5446 36.2286C44.7108 31.3911 36.8827 26.5328 29.0605 21.6536C28.4719 21.2857 28.0392 21.3183 27.468 21.6761C19.6984 26.5219 11.9198 31.3519 4.13217 36.1661C3.83588 36.3174 3.59125 36.5552 3.42992 36.8487C3.26858 37.1422 3.19794 37.478 3.22712 37.8125C3.24855 49.2674 3.2535 60.7223 3.24196 72.1772C3.24196 73.4283 3.24196 73.4283 4.45858 73.4283H21.0263C22.2331 73.4283 22.2355 73.4283 22.2355 72.1772C22.2355 64.9059 22.2355 57.6338 22.2355 50.3608C22.2355 47.5634 23.331 46.465 26.1104 46.465C31.056 46.465 35.9843 46.5551 40.9175 46.4274C43.6178 46.3574 44.7578 48.179 44.7331 50.3458C44.6515 57.6171 44.7059 64.8909 44.6935 72.1622C44.6935 72.8678 44.7603 73.4283 45.3958 73.9437C46.3305 74.6943 45.9151 76.1956 44.7454 76.5184C44.2953 76.627 43.8331 76.6758 43.3705 76.6635C30.2911 76.6635 17.2125 76.6635 4.13464 76.6635C3.88736 76.6635 3.64008 76.6635 3.3928 76.641C1.09557 76.4459 0.027321 75.2774 0.0223754 72.9278C0.0223754 68.5907 0.0223754 64.2537 0.0223754 59.9166C0.0223754 52.4551 0.0471035 44.9962 0.00506592 37.5373C0.00506592 35.7557 0.672722 34.5547 2.17866 33.6289C10.2664 28.6479 18.3359 23.6369 26.3874 18.5959C27.6386 17.8178 28.8602 17.7577 30.1213 18.5609C31.6371 19.5242 33.1653 20.4625 34.696 21.4008C34.9185 21.536 35.1435 21.8612 35.4205 21.6786C35.6975 21.4959 35.5466 21.1581 35.5466 20.8904C35.5466 15.2706 35.5466 9.65154 35.5466 4.03336C35.5466 3.69056 35.5466 3.34526 35.5664 3.00497C35.7296 1.1859 36.9437 0.00237952 38.7316 0.00237952C50.0521 -0.00762911 61.3725 -0.00762911 72.693 0.00237952C73.4747 -0.00829657 74.2307 0.285029 74.8049 0.821843C75.3791 1.35866 75.7278 2.09801 75.7791 2.88737C75.7881 2.98049 75.7922 3.07404 75.7914 3.16761C75.7914 13.7818 75.7914 24.3943 75.7914 35.0051C75.7914 36.1561 75.1905 36.8217 74.2459 36.8417C73.2568 36.8617 72.6534 36.2036 72.5891 35.0026C72.5718 34.6598 72.5891 34.317 72.5891 33.9742C72.5891 24.1407 72.5891 14.3081 72.5891 4.47624C72.5891 3.24768 72.5669 3.22516 71.3527 3.22516C60.9274 3.22516 50.5013 3.22516 40.0743 3.22516C38.8033 3.22516 38.8008 3.22516 38.8008 4.53629C38.8008 10.6541 38.8008 16.7719 38.786 22.8896C38.786 23.6403 38.9863 24.1132 39.6465 24.471C40.5145 24.9414 41.3527 25.4719 42.1762 26.0248C42.8562 26.4777 43.0244 26.2275 42.9897 25.5244C42.9675 25.089 42.9749 24.6512 42.9897 24.2133C43.0689 22.2115 44.3127 20.983 46.2934 20.9605C47.6831 20.9605 49.0703 20.9455 50.4576 20.9605C52.2157 20.983 53.5214 22.2115 53.5857 23.9881C53.6401 25.4894 53.6228 26.9907 53.5857 28.492C53.5486 29.9933 52.693 30.9741 51.192 31.6297ZM25.4477 61.503C25.4477 65.1236 25.4675 68.7417 25.4329 72.3623C25.4329 73.1755 25.6604 73.4433 26.4813 73.4358C31.1088 73.4007 35.7345 73.4007 40.3587 73.4358C41.2711 73.4358 41.5011 73.1355 41.4962 72.2547C41.4665 65.1403 41.4665 58.0258 41.4962 50.9113C41.4962 49.988 41.2489 49.6602 40.3018 49.6602C35.737 49.7028 31.1722 49.6953 26.6099 49.6602C25.742 49.6602 25.418 49.9105 25.4304 50.8237C25.4749 54.3868 25.4477 57.9349 25.4477 61.503ZM46.1698 26.2951C46.1698 28.4694 46.1698 28.4845 48.3137 28.4644C50.6455 28.4444 50.3488 28.8172 50.3488 26.3701C50.3488 23.923 50.6579 24.2158 48.2494 24.2158C45.8409 24.2158 46.2068 23.9681 46.1698 26.2951Z" fill="#0C4264"/><path d="M74.3027 50.5112C73.1083 50.5387 72.2206 50.1509 71.6221 49.2601C71.2982 48.7847 71.046 48.7597 70.5811 49.0499C68.7364 50.2234 68.8798 49.8406 69.9753 51.5321C70.9644 53.0709 72.0054 54.5872 72.9995 56.1285C74.1939 57.9776 73.9367 59.5039 72.2131 60.8826C71.412 61.5182 70.6083 62.1512 69.7651 62.7242C69.1815 63.1221 69.2359 63.4023 69.7008 63.8627C71.7697 65.9161 73.8213 67.9888 75.8556 70.0806C78.1849 72.4676 77.3813 75.8205 74.226 76.7864C66.5257 79.1434 58.8213 81.4787 51.1127 83.7924C48.5855 84.543 46.3427 83.1118 45.9866 80.5671C45.9342 79.973 46.0136 79.3746 46.2191 78.8156C48.5287 70.9863 50.8234 63.1546 53.1726 55.3378C54.0949 52.2652 57.4357 51.467 59.7107 53.734C61.8867 55.9025 64.0438 58.0894 66.182 60.2946C66.6765 60.7951 67.0227 60.8726 67.5667 60.4097C68.3234 59.7717 69.1197 59.1762 69.9332 58.6132C70.4278 58.2654 70.45 57.9651 70.1162 57.4772C68.8946 55.6781 67.7028 53.8566 66.5109 52.035C65.2349 50.0808 65.633 48.3418 67.6187 47.1208L68.2517 46.7354C69.4881 45.9848 69.4881 45.9848 69.0208 44.6111C68.7739 43.9447 68.7676 43.2115 69.0028 42.5409C69.2381 41.8703 69.6998 41.3052 70.3066 40.9454C74.5928 38.4066 78.8938 35.8986 83.2097 33.4214C84.7453 32.5507 86.3872 33.0111 87.317 34.5099C88.1215 35.8043 88.8773 37.1271 89.5846 38.4783C90.4055 40.0446 89.9926 41.7311 88.4817 42.6294C84.2359 45.1666 79.9481 47.6337 75.6775 50.1359C75.2662 50.3963 74.7876 50.527 74.3027 50.5112ZM49.9505 80.7648C50.183 80.7072 50.4847 80.6422 50.7764 80.5546C58.2097 78.3027 65.6429 76.0507 73.0761 73.7988C74.1988 73.456 74.2903 73.0481 73.4446 72.1899C68.2187 66.8953 62.9896 61.6041 57.7572 56.3162C56.8348 55.3854 56.4243 55.493 56.0559 56.734C54.3925 62.3439 52.7291 67.9546 51.0658 73.5661C50.4649 75.5953 49.8739 77.6271 49.273 79.6563C49.0999 80.2318 49.0801 80.7173 49.9505 80.7648ZM86.6617 39.7719C86.5875 39.6268 86.5109 39.4591 86.4144 39.2965C86.1127 38.7535 85.8135 38.2056 85.497 37.6726C84.4832 35.9711 84.9307 36.1138 83.227 37.0896C80.0939 38.8886 76.9807 40.7352 73.865 42.5568C72.0277 43.6252 72.0252 43.6202 73.1231 45.5044C74.1667 47.3159 74.1741 47.3284 75.9372 46.305C79.2952 44.3484 82.6541 42.3867 86.0138 40.42C86.2611 40.2648 86.6073 40.1873 86.6617 39.7719Z" fill="#0C4264"/><path d="M19.5227 53.2835C19.5227 54.4696 19.5401 55.6531 19.5227 56.8366C19.4881 58.6832 18.4322 59.9067 16.6073 60.0744C14.5214 60.2696 12.4222 60.2696 10.3363 60.0744C8.60534 59.9118 7.49753 58.7482 7.45302 56.9967C7.38872 54.4946 7.38131 52.0099 7.45302 49.5178C7.50742 47.6562 8.80317 46.4702 10.6306 46.4551C12.5396 46.4385 14.4494 46.4385 16.36 46.4551C18.1578 46.4702 19.4535 47.7237 19.5129 49.5453C19.5549 50.7964 19.5129 52.0475 19.5129 53.2835H19.5227ZM10.6429 53.266C10.6429 54.2344 10.6578 55.2002 10.6429 56.1685C10.6306 56.724 10.8506 56.9517 11.407 56.9442C12.7934 56.9208 14.1807 56.9208 15.5687 56.9442C16.1424 56.9442 16.3106 56.694 16.3106 56.1485C16.2982 54.2769 16.2957 52.3953 16.3106 50.5362C16.3106 49.9457 16.088 49.6779 15.4946 49.6854C14.1378 49.7004 12.7811 49.7004 11.4243 49.6854C10.8086 49.6779 10.6231 49.9807 10.6355 50.5537C10.6578 51.457 10.6405 52.3627 10.6429 53.266Z" fill="#0C4264"/><path d="M53.588 12.8011C53.588 13.5518 53.6128 14.3024 53.588 15.0531C53.5163 16.7345 52.4481 17.9255 50.7963 18.1207C49.1738 18.3071 47.536 18.3121 45.9125 18.1357C44.1395 17.9481 43.0613 16.7821 42.9946 14.9855C42.9426 13.5543 42.9451 12.118 42.9946 10.6868C43.0613 8.73261 44.3274 7.51906 46.2537 7.50155C47.6682 7.50155 49.0851 7.48653 50.502 7.50155C51.2928 7.49707 52.0543 7.80392 52.6256 8.35724C53.1969 8.91056 53.5332 9.66698 53.5633 10.4666C53.6103 11.2423 53.5633 12.0229 53.5633 12.8011H53.588ZM50.3734 12.8011C50.3487 10.4741 50.6578 10.7193 48.2888 10.7193C45.8655 10.7193 46.1944 10.4691 46.1968 12.8737C46.1993 15.2783 45.8729 14.948 48.2221 14.9705C50.3734 14.998 50.3734 14.983 50.3734 12.8111V12.8011Z" fill="#0C4264"/><path d="M63.1009 7.49403C63.8106 7.49403 64.5178 7.49403 65.225 7.49403C66.9857 7.52155 68.3012 8.74511 68.368 10.4966C68.4273 12.053 68.4298 13.6143 68.368 15.1681C68.3552 15.9121 68.0698 16.6248 67.5673 17.168C67.0647 17.7113 66.3807 18.0463 65.6479 18.1082C63.9954 18.3029 62.3264 18.3088 60.6726 18.1257C58.9416 17.943 57.8635 16.7946 57.7893 15.0455C57.725 13.5442 57.7201 12.043 57.7893 10.5592C57.8759 8.69756 59.1444 7.52655 60.9718 7.49653C61.684 7.48402 62.3937 7.49403 63.1009 7.49403ZM63.0589 14.983C65.4847 14.943 65.1385 15.3458 65.1731 12.8662V12.7711C65.1484 10.5016 65.4377 10.7243 63.1405 10.7293C60.6479 10.7293 60.9965 10.4466 60.9941 12.9212C60.9916 15.3333 60.6825 14.943 63.0589 14.983Z" fill="#0C4264"/><path d="M63.1182 20.9781C63.8254 20.9781 64.5326 20.9781 65.2423 20.9781C66.998 21.0056 68.3061 22.2291 68.3704 23.9806C68.4273 25.5045 68.4224 27.0358 68.3704 28.5596C68.3738 29.3205 68.0941 30.0549 67.587 30.6168C67.0798 31.1787 66.3823 31.5269 65.633 31.5922C63.9804 31.7861 62.3115 31.7911 60.6578 31.6072C58.9416 31.4196 57.8635 30.2661 57.7893 28.5121C57.73 27.0475 57.73 25.5829 57.7893 24.1183C57.866 22.1766 59.1419 20.9981 61.088 20.9781C61.7631 20.973 62.4407 20.9781 63.1182 20.9781ZM65.1731 26.2976C65.1459 23.9706 65.4575 24.2133 63.0861 24.2158C60.6627 24.2158 60.9916 23.9506 60.9941 26.3677C60.9965 28.7848 60.6701 28.4445 63.0193 28.4645C65.1731 28.4845 65.1731 28.4695 65.1731 26.2976Z" fill="#0C4264"/><path d="M63.1652 34.4648C63.8724 34.4648 64.5796 34.4648 65.2893 34.4648C66.9857 34.4974 68.2963 35.7159 68.3655 37.4324C68.4298 38.9888 68.4273 40.5501 68.3655 42.1039C68.3061 43.7303 67.2008 44.8913 65.5861 45.0815C63.9636 45.2666 62.3259 45.2717 60.7023 45.0965C58.9293 44.9089 57.8512 43.7454 57.7844 41.9463C57.73 40.5151 57.7325 39.0788 57.7844 37.6476C57.8487 35.6934 59.1148 34.4849 61.0386 34.4623C61.7483 34.4573 62.4555 34.4623 63.1652 34.4648ZM63.0811 41.9538C65.1731 41.9538 65.183 41.9538 65.1706 39.8145C65.1533 37.4599 65.4624 37.6976 63.1182 37.7001C60.6677 37.7001 61.0064 37.4324 60.9891 39.822C60.9743 41.9538 60.9867 41.9538 63.0811 41.9538Z" fill="#0C4264"/></g><defs><clipPath id="clip0_14_759"><rect width="90" height="84" fill="white"/></clipPath></defs></svg>