<svg xmlns="http://www.w3.org/2000/svg" width="89" height="89" viewBox="0 0 89 89" fill="none"><g clip-path="url(#clip0_51_156)"><path d="M0.0724052 88.9815C0.0519864 88.3446 0.0445546 87.7096 0.00742949 87.0746C-0.0296956 86.4024 0.00742946 85.836 0.935557 85.9419C1.2437 85.9772 1.40891 85.7673 1.41819 85.4573C1.41819 85.1954 1.42933 84.9355 1.42933 84.6755C1.42933 78.5368 1.44789 72.4 1.41633 66.2631C1.39254 65.7451 1.48089 65.228 1.67536 64.7473C1.86983 64.2666 2.16583 63.8336 2.54308 63.4779C6.10709 59.9499 9.63211 56.4033 13.1757 52.8642C14.553 51.4883 15.2064 51.4939 16.5782 52.8642C20.1404 56.4275 23.6821 60.0075 27.2721 63.5392C27.6409 63.8826 27.9312 64.3016 28.1234 64.7675C28.3156 65.2335 28.4051 65.7353 28.3859 66.239C28.3648 72.4062 28.3648 78.5727 28.3859 84.7387C28.3859 85.1397 28.1668 85.7488 28.7144 85.875C29.4328 86.0422 30.2198 86.0997 30.9308 85.8249C31.2519 85.7005 31.1164 85.2474 31.1164 84.9429C31.1238 80.3107 31.1238 75.6785 31.1164 71.0464C31.1164 65.3997 31.1294 59.7549 31.1016 54.1102C31.0829 53.6798 31.1573 53.2504 31.3197 52.8515C31.4821 52.4525 31.7288 52.0933 32.0427 51.7984C35.7069 48.1738 39.3378 44.5196 42.9835 40.8783C44.2012 39.6621 44.888 39.6658 46.1187 40.8951C49.7643 44.5363 53.397 48.1906 57.0576 51.817C57.3625 52.1004 57.6031 52.446 57.7632 52.8304C57.9233 53.2147 57.9992 53.629 57.9857 54.0452C57.9647 64.2355 57.9647 74.4258 57.9857 84.6161C57.9857 85.045 57.7203 85.6968 58.2586 85.8602C58.9882 86.0608 59.7592 86.0557 60.4861 85.8453C60.6977 85.7878 60.7033 85.5222 60.7088 85.318C60.7181 85.0283 60.7181 84.7387 60.7181 84.449C60.7181 70.6106 60.7119 56.7722 60.6995 42.9339C60.6995 41.5319 61.0949 40.4736 62.1159 39.4801C65.6223 36.0691 69.049 32.5764 72.5109 29.119C73.8623 27.7691 74.5138 27.7672 75.8522 29.1023C79.4552 32.7045 83.0451 36.3217 86.6686 39.9016C86.9997 40.2226 87.258 40.6111 87.4258 41.0408C87.5936 41.4704 87.6671 41.9311 87.6412 42.3917C87.6251 56.4033 87.6214 70.4156 87.6301 84.4286C87.6301 85.8658 87.6301 85.8658 88.9889 86.0366C88.9889 86.9056 88.9703 87.7746 88.9889 88.6362C88.9982 88.9388 88.9332 89.0447 88.6306 88.989C88.4867 88.9759 88.342 88.9759 88.1981 88.989L0.0724052 88.9815ZM84.4318 63.97C84.4318 57.0217 84.4349 50.0734 84.441 43.1251C84.4571 42.8261 84.4072 42.5273 84.2949 42.2497C84.1826 41.9721 84.0107 41.7227 83.7914 41.5189C80.7644 38.5294 77.7567 35.5195 74.7681 32.4892C74.2836 31.999 74.0256 32.0064 73.5411 32.4892C70.5563 35.5208 67.5491 38.5313 64.5197 41.5208C64.2991 41.7224 64.1251 41.9697 64.01 42.2455C63.8949 42.5214 63.8414 42.819 63.8533 43.1177C63.8744 50.2405 63.8787 57.3627 63.8663 64.4843C63.8663 71.3174 63.8775 78.1487 63.8515 84.9819C63.8515 85.7451 64.0742 86.0013 64.839 85.9679C66.1105 85.914 67.3876 85.9047 68.6573 85.9679C69.4945 86.0124 69.695 85.6856 69.6671 84.9132C69.617 83.4686 69.6486 82.0184 69.6541 80.5719C69.6541 79.0289 70.1906 78.5071 71.7591 78.5015C73.3277 78.496 74.9426 78.5015 76.5353 78.5015C78.1279 78.5015 78.7219 79.0586 78.7479 80.6963C78.7683 82.0852 78.7906 83.4816 78.7386 84.8649C78.7089 85.6764 78.9391 86.018 79.806 85.9679C80.9587 85.901 82.1189 85.953 83.2772 85.9512C84.4355 85.9493 84.4318 85.9512 84.4318 84.8074V63.97ZM34.2962 69.8728C34.2962 74.8529 34.2962 79.8323 34.2962 84.8111C34.2962 85.9512 34.2962 85.953 35.4638 85.9549C36.6313 85.9567 37.7804 85.914 38.935 85.9697C39.7127 86.005 40.0246 85.7841 39.9912 84.9541C39.9299 83.4797 39.9633 82.0017 39.9782 80.5255C39.9912 79.1143 40.587 78.5183 41.9941 78.5071C43.6734 78.4947 45.352 78.4947 47.0301 78.5071C48.4891 78.5071 49.072 79.1032 49.0831 80.5775C49.0942 82.0518 49.1147 83.5317 49.0831 85.006C49.0645 85.7042 49.2687 85.9976 50.0112 85.9679C51.2549 85.9177 52.5023 85.9122 53.7442 85.9679C54.5479 86.0069 54.7892 85.7284 54.7874 84.9318C54.7663 74.9148 54.7663 64.8977 54.7874 54.8807C54.7964 54.595 54.7433 54.3107 54.6317 54.0475C54.5202 53.7844 54.3529 53.5485 54.1414 53.3563C51.1603 50.4021 48.181 47.4441 45.2462 44.4435C44.6541 43.8363 44.3367 43.9458 43.8076 44.4843C40.8983 47.4379 37.9679 50.3674 35.0164 53.2727C34.7717 53.4925 34.5783 53.7635 34.45 54.0664C34.3217 54.3694 34.2616 54.6968 34.2739 55.0256C34.3092 59.9759 34.2962 64.9262 34.2962 69.8728ZM4.62951 75.8667C4.62951 78.9342 4.64436 82.0035 4.61837 85.071C4.61837 85.7525 4.83555 85.9995 5.51865 85.9697C6.76234 85.9289 8.00974 85.9103 9.25158 85.9697C10.111 86.0143 10.3523 85.6875 10.3226 84.8705C10.2707 83.4259 10.2799 81.9757 10.3226 80.5292C10.3653 79.0827 10.9649 78.5108 12.4351 78.5034C14.0859 78.496 15.7355 78.496 17.3838 78.5034C18.8428 78.5034 19.3979 79.0605 19.4072 80.4809C19.4164 81.985 19.4498 83.4927 19.3942 84.9949C19.3645 85.7822 19.6522 85.9976 20.3965 85.9679C21.6681 85.9159 22.9452 85.914 24.2167 85.9679C24.9703 85.9994 25.2154 85.7636 25.2117 84.9893C25.1832 78.91 25.1832 72.8308 25.2117 66.7515C25.2183 66.4803 25.1657 66.2109 25.0577 65.9621C24.9496 65.7132 24.7887 65.4909 24.5861 65.3106C21.5666 62.3136 18.5607 59.3031 15.5684 56.2789C15.0709 55.772 14.7777 55.7367 14.269 56.2622C11.2842 59.2951 8.27705 62.305 5.24765 65.292C5.03934 65.4877 4.87626 65.7264 4.76982 65.9917C4.66337 66.2569 4.61612 66.5422 4.63137 66.8276C4.6425 69.845 4.62951 72.8549 4.62951 75.8667ZM16.2348 83.8511V82.3879C16.2348 81.985 16.0752 81.6693 15.6352 81.725C14.9354 81.816 14.1502 81.3629 13.5451 82.0555C13.4838 82.1261 13.5098 82.2783 13.5098 82.3935C13.5098 83.372 13.5098 84.3524 13.5098 85.3328C13.5098 85.7692 13.6955 85.9605 14.1317 85.9586C16.6395 85.9475 16.2033 86.2037 16.246 84.0312L16.2348 83.8511ZM43.1728 83.7638C43.2303 86.265 42.731 85.9215 45.1757 85.9493H45.2611C45.6992 85.9716 45.8903 85.7636 45.8866 85.3254C45.8866 84.5827 45.8866 83.8288 45.8866 83.0805C45.8866 81.6972 45.8866 81.6972 44.5316 81.6972C43.1765 81.6972 43.1709 81.6972 43.1709 83.0749L43.1728 83.7638ZM75.5626 83.8511C75.5626 81.4929 75.5626 81.4929 73.5207 81.7009C73.4923 81.7027 73.4637 81.7027 73.4353 81.7009C73.3532 81.6908 73.2698 81.6998 73.1918 81.7273C73.1137 81.7548 73.0431 81.8 72.9854 81.8593C72.9277 81.9187 72.8845 81.9906 72.8591 82.0694C72.8338 82.1482 72.8271 82.2318 72.8395 82.3136C72.8395 83.3237 72.8395 84.332 72.8395 85.3403C72.8395 85.7692 73.0548 85.9307 73.4799 85.9697C75.5422 86.1647 75.5681 86.1554 75.5681 84.1259L75.5626 83.8511Z" fill="#0C4264"/><path d="M88.9889 13.4139C85.9669 13.6943 85.9669 13.6942 85.9669 10.701V5.64487C84.8773 6.79982 83.9566 7.78394 83.0266 8.76064C79.0759 12.9113 74.8668 16.8079 70.4245 20.4271C56.2154 32.0249 40.3383 40.4909 22.793 45.8249C16.1494 47.8675 9.36481 49.3009 2.50781 50.4076C1.91195 50.5042 1.63722 50.3222 1.57968 49.728C1.55016 49.2655 1.47492 48.8071 1.35507 48.3595C1.1119 47.5648 1.49057 47.3475 2.18853 47.2454C10.5194 45.9456 18.7092 44.0201 26.6707 41.2608C36.5519 37.8495 46.0099 33.3172 54.8598 27.7524C63.6763 22.1901 71.8368 15.6498 79.186 8.25558C80.2273 7.21204 81.2279 6.12579 82.2414 5.0544C82.3732 4.91513 82.5718 4.79629 82.5031 4.49734C81.9258 4.46763 81.3894 4.69788 80.8455 4.82786C79.4384 5.15838 78.0332 5.50189 76.6392 5.87883C76.1194 6.01809 75.8781 5.85097 75.7668 5.36262C75.1096 2.45296 74.7495 3.14557 77.3966 2.44925C80.4705 1.63967 83.5686 0.917361 86.6481 0.124492C87.6338 -0.128038 88.419 0.0390773 88.987 0.924788L88.9889 13.4139Z" fill="#0C4264"/><path d="M74.1555 52.0229C72.3345 52.0229 70.5136 52.0341 68.6926 52.0229C67.267 52.0118 66.7082 51.4399 66.7045 50.012C66.7045 48.2777 66.6934 46.5415 66.7045 44.8128C66.7045 43.5836 67.2614 42.943 68.4698 42.9337C72.2566 42.9052 76.0433 42.9052 79.8301 42.9337C80.994 42.9337 81.6325 43.5205 81.6771 44.6884C81.7458 46.536 81.7476 48.3909 81.6771 50.2385C81.6307 51.4956 80.9847 52.0211 79.7002 52.0303C77.8513 52.0322 76.0118 52.0229 74.1555 52.0229ZM72.6074 47.405C72.6074 46.1052 72.6074 46.1052 71.1837 46.1052C69.7599 46.1052 69.7803 46.1052 69.7803 47.5164C69.7803 48.8162 69.7803 48.8162 71.2041 48.8162C72.6278 48.8162 72.6074 48.8254 72.6074 47.405ZM78.5196 47.5368C78.5196 46.1052 78.5196 46.1052 77.3075 46.1033C75.789 46.1033 75.789 46.1033 75.789 47.4254C75.789 48.818 75.789 48.818 77.0661 48.8199C78.5177 48.8292 78.5177 48.8292 78.5196 47.5424V47.5368Z" fill="#0C4264"/><path d="M74.1555 63.8511C72.2993 63.8511 70.456 63.8511 68.6053 63.8511C67.2484 63.8418 66.7175 63.3107 66.7101 61.9553C66.7101 60.1615 66.699 58.3697 66.7101 56.5704C66.7101 55.4823 67.15 54.9698 68.2211 54.8157C68.7664 54.7547 69.3153 54.7317 69.8639 54.747C73.0133 54.747 76.164 54.747 79.3159 54.747C81.1258 54.747 81.7068 55.3375 81.7161 57.1423C81.7161 58.6445 81.7272 60.1485 81.7161 61.6526C81.7012 63.2922 81.1462 63.8437 79.5275 63.8474C77.7319 63.8523 75.9412 63.8536 74.1555 63.8511ZM71.2486 57.9371C69.7896 57.9371 69.7896 57.9371 69.7896 59.2034C69.7896 60.6759 69.7896 60.6759 71.1577 60.6759C72.6167 60.6759 72.6167 60.6759 72.6167 59.2963C72.6167 57.9166 72.6074 57.9371 71.2393 57.9371H71.2486ZM78.5289 59.3575C78.5289 57.9389 78.5289 57.9389 77.3242 57.9371C75.7983 57.9371 75.7983 57.9371 75.7983 59.2276C75.7983 60.674 75.7983 60.674 77.1107 60.6759C78.5177 60.6777 78.5177 60.6777 78.5196 59.3575H78.5289Z" fill="#0C4264"/><path d="M74.2279 66.6845C76.0842 66.6845 77.9274 66.6845 79.7781 66.6845C81.0441 66.6845 81.6585 67.2416 81.6938 68.5135C81.7408 70.2763 81.7408 72.0396 81.6938 73.8036C81.6622 75.1498 81.0348 75.7292 79.5758 75.7589C77.6119 75.7997 75.6461 75.7737 73.6803 75.7737C72.0617 75.7737 70.443 75.796 68.8244 75.7645C67.2057 75.7329 66.7008 75.1944 66.6971 73.6087C66.6971 71.9022 66.686 70.1977 66.6971 68.4912C66.7082 67.2416 67.254 66.6957 68.5014 66.6864C70.4133 66.6753 72.3215 66.6845 74.2279 66.6845ZM71.1298 72.5948C72.6055 72.5948 72.6055 72.5948 72.6148 71.3582C72.6148 69.7669 72.6148 69.7669 71.3155 69.7669C69.784 69.7669 69.784 69.7669 69.784 71.1428C69.7803 72.5948 69.7803 72.5948 71.1298 72.5948ZM78.5196 71.2542C78.5196 69.7687 78.5196 69.7687 77.2815 69.7687C75.7964 69.7687 75.7964 69.7687 75.7964 71.1075C75.7964 72.593 75.7964 72.593 77.1422 72.593C78.5177 72.5948 78.5177 72.5948 78.5196 71.2542Z" fill="#0C4264"/><path d="M44.539 63.8492C42.6586 63.8492 40.7801 63.8585 38.8997 63.8492C37.643 63.8492 37.0434 63.2531 37.0249 61.9923C37.0026 60.1986 37.0026 58.4037 37.0249 56.6075C37.0397 55.5064 37.5298 54.9364 38.625 54.812C39.3738 54.75 40.1256 54.7308 40.8766 54.7544C43.7389 54.7544 46.6019 54.7544 49.4655 54.7544C51.5482 54.7544 52.0401 55.2446 52.0401 57.2871C52.0401 58.7912 52.0494 60.2952 52.0401 61.7992C52.0308 63.3033 51.4832 63.851 49.9982 63.8566C48.1828 63.8547 46.36 63.851 44.539 63.8492ZM41.5597 60.6758C42.9296 60.6758 42.9296 60.6758 42.9315 59.3761C42.9315 57.9426 42.9315 57.9426 41.6321 57.9407C40.212 57.9407 40.2121 57.9407 40.2121 59.2591C40.2139 60.6758 40.2139 60.6758 41.5597 60.6758ZM46.1298 59.2405C46.1298 60.6758 46.1298 60.6758 47.4552 60.6758C48.8436 60.6758 48.8436 60.6758 48.8455 59.3872C48.8455 57.9389 48.8455 57.9389 47.5591 57.937C46.1261 57.937 46.1261 57.937 46.1261 59.2405H46.1298Z" fill="#0C4264"/><path d="M44.5241 75.7756C42.8201 75.7756 41.1142 75.7756 39.4083 75.7756C37.5613 75.7644 37.0211 75.2185 37.0174 73.4063C37.0174 71.8168 37.0063 70.2255 37.0174 68.6361C37.0323 67.262 37.6114 66.6901 38.9814 66.6882C42.6815 66.6882 46.381 66.6882 50.0799 66.6882C51.4405 66.6882 52.0197 67.2676 52.0327 68.6472C52.0488 70.3518 52.0488 72.0576 52.0327 73.7646C52.0215 75.1016 51.4461 75.7236 50.0688 75.7589C48.2125 75.8053 46.3693 75.77 44.5186 75.77L44.5241 75.7756ZM42.9315 71.1966C42.9315 69.7669 42.9315 69.7669 41.6321 69.7669C40.2158 69.7669 40.2158 69.7669 40.2139 71.0796C40.2139 72.593 40.2139 72.593 41.5133 72.5948C42.9315 72.5948 42.9315 72.5948 42.9315 71.1966ZM46.1298 71.1224C46.1298 72.593 46.1298 72.593 47.3828 72.5948C48.8455 72.5948 48.8455 72.5948 48.8455 71.2412C48.8455 69.7687 48.8455 69.7687 47.5888 69.7669C46.1261 69.765 46.1261 69.765 46.1261 71.1224H46.1298Z" fill="#0C4264"/><path d="M14.941 66.6845C16.7973 66.6845 18.6387 66.6845 20.4893 66.6845C21.8054 66.6845 22.3456 67.2192 22.3549 68.5153C22.3673 70.2781 22.3673 72.0414 22.3549 73.8054C22.3549 75.1294 21.837 75.692 20.4652 75.7477C18.9932 75.8053 17.5175 75.7718 16.0436 75.7718C13.9906 75.7718 11.9394 75.7718 9.88642 75.7718C7.88352 75.7718 7.35077 75.2296 7.3452 73.2577C7.3452 71.8131 7.33592 70.3666 7.3452 68.922C7.35634 67.2192 7.88909 66.6938 9.56343 66.6826C11.359 66.6826 13.1516 66.6832 14.941 66.6845ZM17.8832 69.7668C16.4501 69.7668 16.4501 69.7668 16.4501 71.048C16.4501 72.5929 16.4501 72.5929 17.705 72.5948C19.2754 72.5948 19.2753 72.5948 19.2772 71.2801C19.2809 69.7668 19.2809 69.7668 17.8869 69.7668H17.8832ZM10.538 71.1019C10.538 72.5874 10.538 72.5874 11.7687 72.5874C13.2666 72.5874 13.2667 72.5874 13.2685 71.2541C13.2685 69.7687 13.2685 69.7687 12.0155 69.7687C10.5435 69.765 10.5435 69.765 10.5417 71.1019H10.538Z" fill="#0C4264"/></g><defs><clipPath id="clip0_51_156"><rect width="89" height="89" fill="white"/></clipPath></defs></svg>