<svg xmlns="http://www.w3.org/2000/svg" width="92" height="74" viewBox="0 0 92 74" fill="none"><g clip-path="url(#clip0_51_32)"><path d="M51.0444 73.9973C38.0633 73.9973 25.0829 73.9973 12.1035 73.9973C8.89486 73.9791 5.82329 72.6885 3.55706 70.4065C1.29084 68.1245 0.0133823 65.0357 0.00264849 61.8121C0.00264849 45.3118 0.00264849 28.8105 0.00264849 12.3084C0.00143666 9.42948 1.00644 6.64151 2.84232 4.43096C4.67819 2.22041 7.22837 0.727636 10.0479 0.213109C13.1906 -0.383446 16.4411 0.272222 19.1111 2.04128C21.7811 3.81035 23.6609 6.55391 24.3526 9.69107C24.5622 10.644 24.9585 10.8289 25.8278 10.8264C47.3245 10.8058 68.8211 10.8058 90.3178 10.8264C92.1739 10.8264 91.9975 10.6645 91.9975 12.5473C91.9975 32.4467 91.9975 52.3453 91.9975 72.243C91.9975 74.2362 92.1969 74.0179 90.1823 74.0205C77.1363 74.0085 64.0904 74.0008 51.0444 73.9973ZM50.3158 70.7841H87.4338C88.8068 70.7841 88.8093 70.7841 88.8093 69.4407V15.3419C88.8093 14.0216 88.8093 14.0191 87.508 14.0191H25.994C24.644 14.0191 24.6415 14.0191 24.6415 15.3855C24.6415 30.0914 24.6415 44.7963 24.6415 59.5004C24.6415 62.0279 25.0582 61.6426 22.3916 61.7145C21.5837 61.7376 21.3331 61.3832 21.2871 60.6537C21.0059 56.2589 16.7848 52.0182 11.4259 52.6244C7.91305 53.0225 5.39981 54.8565 4.03454 58.0826C2.68461 61.265 3.07323 64.3524 5.16205 67.147C7.1665 69.8286 9.98142 70.7918 13.2028 70.7944C25.567 70.7909 37.938 70.7875 50.3158 70.7841ZM21.4379 53.1253V51.6895C21.4379 39.1001 21.4379 26.5142 21.4379 13.9317C21.4413 13.0677 21.3961 12.2041 21.3024 11.3452C21.1595 10.0758 20.7511 8.85107 20.1041 7.75129C19.457 6.65151 18.586 5.7015 17.548 4.96353C16.51 4.22556 15.3285 3.71629 14.0809 3.46909C12.8333 3.22189 11.5478 3.24234 10.3087 3.52911C5.9623 4.53341 3.20107 8.18333 3.19595 12.9968C3.18232 26.0348 3.18232 39.0727 3.19595 52.1107C3.19595 52.3676 3.07323 52.6861 3.38259 52.9532C5.90349 50.6081 8.79766 49.2365 12.331 49.2391C15.8644 49.2416 18.7406 50.6107 21.4379 53.1253Z" fill="#0C4264"/><path d="M38.2788 39.2499V24.545C38.2788 23.1066 38.2788 23.1066 39.6671 23.104C40.4341 23.104 41.2011 23.0655 41.9681 23.104C42.7351 23.1425 42.9064 22.8472 42.8885 22.1459C42.8502 20.705 42.9013 19.2615 42.8681 17.8205C42.8553 17.1475 43.1237 16.9318 43.7706 16.9343C49.3527 16.9498 54.9331 16.9498 60.5118 16.9343C61.1868 16.9343 61.4015 17.1912 61.3913 17.8488C61.3632 19.3205 61.4041 20.7949 61.376 22.2692C61.3632 22.8985 61.6061 23.1246 62.2197 23.104C63.1759 23.0706 64.1346 23.122 65.0883 23.0886C65.7479 23.0655 65.9985 23.3198 65.9831 23.985C65.9524 25.4568 65.9831 26.9312 65.9831 28.4055C65.9831 36.9896 65.9984 45.5763 65.9652 54.1629C65.9652 55.1133 66.1825 55.4806 67.1822 55.4164C68.5168 55.3316 69.8591 55.4164 71.1988 55.3907C71.8328 55.3753 72.1268 55.5731 72.1141 56.2615C72.0655 59.0869 72.4234 58.5732 69.8974 58.6014C67.9518 58.6322 66.0087 58.6014 64.063 58.6014C62.7847 58.6014 62.7847 58.6014 62.7847 57.3351C62.7847 47.4359 62.7847 37.5367 62.7847 27.6375C62.7847 26.3044 62.7847 26.3019 61.5063 26.3019C55.2245 26.3019 48.9428 26.3198 42.661 26.2813C41.7431 26.2813 41.4721 26.5382 41.4747 27.468C41.5053 37.4006 41.4926 47.3306 41.4926 57.2632C41.4926 58.5963 41.4926 58.5988 40.1938 58.6014C37.8672 58.6014 35.538 58.5783 33.2114 58.6143C32.4444 58.6143 32.1402 58.3831 32.1606 57.5868C32.2245 55.0183 31.8845 55.4421 34.2546 55.4036C35.2414 55.3881 36.2334 55.3522 37.2178 55.4164C38.0512 55.4678 38.3197 55.1904 38.3146 54.335C38.2609 49.3084 38.2788 44.2792 38.2788 39.2499ZM52.2204 20.163C50.7861 20.163 49.3493 20.163 47.915 20.163C45.8261 20.1836 46.1253 19.8625 46.0537 22.0869C46.0281 22.9011 46.3247 23.1143 47.1019 23.1143C50.1316 23.0783 53.1613 23.1143 56.191 23.0937C58.446 23.0783 58.1417 23.4944 58.1903 21.0389C58.2056 20.3582 57.9346 20.1476 57.2929 20.1605C55.6029 20.1836 53.9104 20.163 52.2204 20.163Z" fill="#0C4264"/><path d="M81.2823 37.7885C81.2823 44.3203 81.2644 50.8496 81.3002 57.3814C81.3002 58.3369 81.0446 58.7171 80.0705 58.6323C79.1526 58.5527 78.222 58.6015 77.299 58.6143C76.7877 58.6143 76.532 58.4011 76.555 57.872C76.5704 57.3943 76.5806 56.9114 76.555 56.4336C76.509 55.7427 76.6803 55.3086 77.4908 55.4062C77.951 55.4524 78.0993 55.1494 78.089 54.7384C78.089 54.4815 78.089 54.2247 78.089 53.9678C78.089 43.1799 78.089 32.392 78.089 21.6041C78.089 20.8052 78.1223 20.3198 77.0152 20.0629C75.9925 19.8189 76.7289 18.5218 76.5704 17.6973C76.4834 17.2529 76.711 16.973 77.2146 16.9781C78.36 16.9781 79.5157 16.9781 80.656 16.9781C81.1034 16.9781 81.2772 17.217 81.2721 17.6408C81.2721 17.9285 81.2721 18.2161 81.2721 18.5038L81.2823 37.7885Z" fill="#0C4264"/><path d="M52.1207 67.8431C47.8868 67.8431 43.6504 67.8252 39.414 67.8585C38.5575 67.8585 38.1995 67.6248 38.2634 66.7258C38.3325 65.7703 38.2916 64.8071 38.2788 63.8465C38.2788 63.3328 38.4833 63.0759 39.0126 63.0964C39.4907 63.1119 39.9688 63.1196 40.4443 63.0964C41.1244 63.0528 41.5616 63.212 41.4874 64.034C41.4337 64.653 41.9042 64.6401 42.3337 64.6401C43.7348 64.6401 45.1461 64.6401 46.5369 64.6401C51.5378 64.6401 56.5387 64.6401 61.5396 64.6401C62.2631 64.6401 62.6568 64.6119 62.8588 63.6487C63.1017 62.4928 64.3034 63.2968 65.0576 63.1144C65.4922 63.0091 65.9703 63.0836 65.9652 63.7566C65.9652 64.8456 65.9396 65.9347 65.978 67.0212C66.0036 67.7481 65.6124 67.8534 65.0218 67.8483C62.7591 67.8329 60.499 67.8483 58.2363 67.8483L52.1207 67.8431Z" fill="#0C4264"/><path d="M52.2204 47.7058C53.9436 47.7058 55.6643 47.7314 57.3849 47.7058C58.0932 47.7058 58.3309 47.9626 58.3258 48.6587C58.3002 51.669 58.3002 54.6802 58.3258 57.6923C58.3258 58.4089 58.0701 58.6401 57.3722 58.6272C54.6902 58.5707 55.1632 58.9303 55.1248 56.4106C55.0993 54.9028 55.0839 53.3977 55.1248 51.8925C55.1504 51.1219 54.8692 50.8882 54.1226 50.9139C52.7855 50.9601 51.4432 50.9601 50.106 50.9139C49.3672 50.8882 49.0834 51.1142 49.1038 51.8925C49.1524 53.8138 49.1038 55.7453 49.1294 57.6589C49.1294 58.3421 48.9351 58.6427 48.2064 58.6272C45.4887 58.5707 45.9565 58.9252 45.9284 56.4414C45.9003 53.8728 45.9463 51.3043 45.9105 48.7537C45.8977 47.9652 46.1534 47.6826 46.9485 47.7032C48.7126 47.7469 50.4665 47.7058 52.2204 47.7058Z" fill="#0C4264"/><path d="M46.0409 29.2559C47.6005 29.2559 47.603 29.2559 47.5979 30.8997C47.5979 32.6489 47.7207 32.4563 45.8671 32.464C44.3995 32.464 44.3995 32.464 44.4021 30.7251C44.4046 29.2559 44.4046 29.2559 46.0409 29.2559Z" fill="#0C4264"/><path d="M52.2051 32.4666C50.5254 32.4666 50.5253 32.4666 50.5253 30.8484C50.5253 29.2302 50.5253 29.2559 52.1386 29.2559C53.7519 29.2559 53.7238 29.2559 53.7238 30.8766C53.7238 32.4974 53.7238 32.4666 52.2051 32.4666Z" fill="#0C4264"/><path d="M58.2747 29.2559C59.847 29.2559 59.8522 29.2559 59.847 30.8869C59.847 32.6463 59.9672 32.4563 58.1264 32.4665C56.6486 32.4665 56.6486 32.4666 56.6512 30.7405C56.6537 29.2559 56.6537 29.2559 58.2747 29.2559Z" fill="#0C4264"/><path d="M47.5979 37.0771C47.5979 38.6182 47.5979 38.6182 45.9386 38.6182C44.4046 38.6182 44.4046 38.6182 44.4046 36.8511C44.4046 35.4024 44.4046 35.4024 46.1611 35.405C47.6005 35.4101 47.6005 35.4101 47.5979 37.0771Z" fill="#0C4264"/><path d="M52.044 38.6207C50.5253 38.6207 50.5253 38.6207 50.5253 36.9332C50.5253 35.4075 50.5254 35.4075 52.2051 35.4075C53.7238 35.4075 53.7238 35.4075 53.7238 37.095C53.7212 38.6207 53.7212 38.6207 52.044 38.6207Z" fill="#0C4264"/><path d="M59.847 37.0539C59.847 38.6207 59.847 38.6258 58.2108 38.6181C56.4697 38.6181 56.6614 38.7414 56.6537 36.8792C56.6537 35.4049 56.6537 35.4049 58.3846 35.4074C59.847 35.41 59.847 35.41 59.847 37.0539Z" fill="#0C4264"/><path d="M45.9131 44.7724C44.4021 44.7724 44.4021 44.7724 44.4021 43.0797C44.4021 41.5592 44.4021 41.5592 46.0895 41.5617C47.6005 41.5617 47.6005 41.5617 47.5979 43.2544C47.5979 44.7724 47.5979 44.7724 45.9131 44.7724Z" fill="#0C4264"/><path d="M53.7238 43.2237C53.7238 44.7648 53.7238 44.7648 52.0696 44.7648C50.5356 44.7648 50.5202 44.7648 50.5356 43.103C50.5356 41.3718 50.4129 41.5618 52.2844 41.5618C53.7238 41.5541 53.7238 41.5618 53.7238 43.2237Z" fill="#0C4264"/><path d="M58.2159 44.7724C56.6512 44.7724 56.6461 44.7724 56.6512 43.1336C56.6512 41.3793 56.531 41.5719 58.377 41.5617C59.8496 41.5617 59.8496 41.5617 59.847 43.2954C59.8445 44.7724 59.8445 44.7724 58.2159 44.7724Z" fill="#0C4264"/></g><defs><clipPath id="clip0_51_32"><rect width="92" height="74" fill="white"/></clipPath></defs></svg>