<svg xmlns="http://www.w3.org/2000/svg" width="74" height="74" viewBox="0 0 74 74" fill="none"><g clip-path="url(#clip0_51_68)"><path d="M74 21.2878V25.623C73.6627 26.4912 73.0037 26.9986 72.1211 27.2629C71.1074 27.5658 70.1111 27.9285 69.0936 28.2179C68.554 28.3703 68.2361 28.6365 68.0819 29.198C67.8075 30.172 67.4167 31.1094 66.918 31.9896C66.7825 32.2012 66.7105 32.4473 66.7105 32.6987C66.7105 32.95 66.7825 33.1961 66.918 33.4077C67.4421 34.353 67.9335 35.3177 68.4134 36.2881C68.9375 37.3492 68.8219 38.3447 67.999 39.2148C67.4383 39.8091 66.8659 40.3956 66.2647 40.9512C65.3011 41.8425 64.3915 41.9641 63.218 41.3795C62.2062 40.876 61.1984 40.3608 60.2021 39.8264C60.0393 39.7266 59.8517 39.6748 59.6608 39.6768C59.4699 39.6789 59.2835 39.7347 59.1229 39.838C58.1526 40.3732 57.1264 40.7996 56.0627 41.1094C55.8653 41.1566 55.6848 41.2573 55.5409 41.4007C55.3971 41.544 55.2956 41.7243 55.2475 41.9216C54.9122 43.0271 54.5557 44.1249 54.1992 45.2207C53.9294 46.0542 53.4091 46.7815 52.5342 46.8491C50.6168 46.9957 48.5509 47.6574 46.9688 45.651V46.6349C46.9688 54.7148 46.9688 62.7953 46.9688 70.8765C46.9688 72.2772 46.5275 73.3653 45.2151 73.9981H4.16827C2.87713 73.4617 2.36452 72.4971 2.36645 71.1041C2.38829 56.9354 2.39279 42.7667 2.37994 28.5979C2.37994 28.3568 2.36838 28.1156 2.37994 27.8764C2.3951 27.799 2.3943 27.7193 2.37759 27.6423C2.36089 27.5652 2.32863 27.4924 2.28279 27.4282C2.23696 27.3641 2.17851 27.31 2.11104 27.2693C2.04358 27.2286 1.96851 27.2021 1.89046 27.1915C0.95197 26.96 0.348795 26.3445 -0.0231323 25.4783V21.4268C0.58968 20.1013 1.65921 19.646 3.07561 19.6499C10.9979 19.673 18.9201 19.6229 26.8423 19.6885C28.6685 19.706 30.482 19.3828 32.19 18.7354C32.3888 18.6819 32.5701 18.5771 32.7158 18.4315C32.8616 18.286 32.9666 18.1047 33.0206 17.9058C33.3297 16.8417 33.755 15.8149 34.2886 14.844C34.3884 14.6805 34.4412 14.4925 34.4412 14.3009C34.4412 14.1093 34.3884 13.9214 34.2886 13.7578C33.7528 12.7623 33.2499 11.7494 32.7199 10.75C32.1418 9.65614 32.2883 8.65676 33.1246 7.76929C33.7201 7.14034 34.331 6.52296 34.9688 5.93839C35.8245 5.1551 36.7919 5.02776 37.8344 5.56989C38.8153 6.08116 39.8097 6.5712 40.779 7.10368C40.9691 7.22785 41.1906 7.29525 41.4175 7.29798C41.6445 7.30071 41.8675 7.23867 42.0605 7.11912C42.9865 6.60299 43.9695 6.19701 44.9897 5.90945C45.2113 5.85899 45.4141 5.74636 45.5741 5.58475C45.7342 5.42314 45.845 5.21923 45.8935 4.99689C46.2269 3.86633 46.5757 2.74155 46.9611 1.62642C47.3465 0.511283 48.1019 0.0135289 49.2543 0.00195312C50.0733 0.00195312 50.8923 0.00195312 51.7113 0.00195312C53.0603 0.00195312 53.7618 0.495852 54.2165 1.75568C54.602 2.86695 54.9989 3.98016 55.3535 5.10301C55.4063 5.30911 55.5148 5.49665 55.6671 5.64505C55.8194 5.79344 56.0096 5.89694 56.2169 5.94418C57.2607 6.24063 58.2655 6.66098 59.2096 7.19629C59.3793 7.30772 59.5774 7.36805 59.7803 7.3701C59.9832 7.37215 60.1824 7.31584 60.3543 7.20786C61.368 6.65608 62.3932 6.11974 63.4376 5.61041C64.4417 5.11651 65.409 5.20719 66.2493 5.97505C66.8698 6.54226 67.4768 7.13262 68.0453 7.74999C68.9934 8.78409 69.0936 9.64263 68.4519 10.916C67.9644 11.8806 67.4672 12.8453 66.9526 13.7964C66.8468 13.9554 66.7884 14.1413 66.7843 14.3323C66.7802 14.5233 66.8306 14.7115 66.9295 14.8749C67.4804 15.8632 67.9186 16.9103 68.2361 17.9965C68.2821 18.1832 68.3783 18.3538 68.5141 18.4898C68.65 18.6259 68.8204 18.7221 69.0069 18.7682C69.9705 19.0634 70.934 19.4029 71.8975 19.675C72.8264 19.9316 73.5645 20.4139 74 21.2878ZM5.04702 49.3051C5.04702 56.3573 5.04702 63.4088 5.04702 70.4598C5.04702 71.4244 5.10291 71.4784 6.07223 71.4804C9.46775 71.4804 12.8652 71.4649 16.2607 71.4919C16.9603 71.4919 17.1761 71.2566 17.1722 70.5697C17.1453 67.1279 17.1453 63.686 17.1722 60.2442C17.1722 59.5901 17.0181 59.2795 16.2858 59.293C15.3222 59.3104 14.7133 58.7335 14.7248 57.9618C14.7364 57.1901 15.3492 56.6499 16.3224 56.6479C21.8865 56.6351 27.4506 56.6351 33.0148 56.6479C33.9957 56.6479 34.5815 57.1766 34.5873 57.9714C34.5931 58.7663 34.0092 59.3104 33.0321 59.2949C32.3268 59.2834 32.1206 59.538 32.1264 60.2229C32.1534 63.6648 32.138 67.1066 32.1399 70.5485C32.1399 71.4533 32.1688 71.4804 33.0803 71.4804C36.5015 71.4804 39.9221 71.4804 43.342 71.4804C44.294 71.4804 44.3191 71.4533 44.3191 70.5157C44.3191 65.2938 44.3191 60.0712 44.3191 54.8479C44.3191 50.4433 44.319 46.0388 44.3287 41.6342C44.3287 41.0457 44.1803 40.6927 43.5868 40.5036C43.0597 40.3319 42.5541 40.1001 42.0798 39.8129C41.5787 39.51 41.1548 39.5679 40.6672 39.8342C39.7037 40.3647 38.7016 40.8567 37.713 41.3564C36.7244 41.8561 35.7859 41.7326 34.9688 41.0014C34.3051 40.4079 33.6722 39.7807 33.0726 39.1222C32.2035 38.1692 32.1091 37.2875 32.6872 36.1415C33.1979 35.1305 33.7143 34.1254 34.2443 33.126C34.3438 32.9764 34.3996 32.802 34.4054 32.6223C34.4112 32.4427 34.3667 32.265 34.277 32.1093C33.7183 31.0965 33.2662 30.0284 32.9281 28.9221C32.8471 28.6635 32.7604 28.3838 32.481 28.3047C31.1436 27.9343 29.8929 27.2571 28.4514 27.259C21.0322 27.268 13.6129 27.268 6.19364 27.259C5.04703 27.259 5.03739 27.259 5.03739 28.4397L5.04702 49.3051ZM37.3102 14.4427C37.2804 14.7172 37.1881 14.9812 37.0405 15.2144C36.1827 16.6388 35.5399 18.1821 35.1326 19.7946C35.0696 20.0664 34.9333 20.3157 34.7386 20.5153C34.5439 20.715 34.2983 20.8574 34.0284 20.9271C33.0649 21.228 32.1013 21.5329 31.1378 21.8531C29.4632 22.4126 29.7098 22.0345 29.6674 23.9348C29.6559 24.4596 29.8601 24.7201 30.3554 24.8667C31.5772 25.2294 32.7874 25.6384 34.0169 26.0088C34.3092 26.084 34.5747 26.2397 34.7832 26.4583C34.9917 26.6769 35.1348 26.9496 35.1962 27.2455C35.5968 28.8081 36.2247 30.3032 37.0597 31.6829C37.2262 31.9346 37.318 32.2285 37.3245 32.5303C37.3309 32.8322 37.2519 33.1297 37.0963 33.3884C36.6165 34.2778 36.1636 35.1807 35.6992 36.0798C34.9688 37.4901 34.9804 37.4785 36.1579 38.5782C36.5124 38.91 36.8054 38.964 37.2389 38.7267C38.3605 38.1209 39.5148 37.5692 40.6422 36.9769C40.9002 36.8195 41.1976 36.7391 41.4997 36.7449C41.8017 36.7507 42.0959 36.8425 42.3476 37.0097C43.7253 37.8543 45.2248 38.4809 46.7934 38.8676C47.0893 38.928 47.3623 39.0703 47.5813 39.2783C47.8004 39.4864 47.9567 39.7518 48.0325 40.0444C48.3293 41.0091 48.6261 41.9737 48.9518 42.9384C49.4798 44.4818 49.131 44.3313 50.9309 44.3718C51.5572 44.3854 51.8327 44.1403 51.9966 43.5615C52.3376 42.3596 52.75 41.1769 53.1162 39.9827C53.1881 39.7014 53.3378 39.446 53.5481 39.246C53.7584 39.046 54.0208 38.9095 54.3052 38.8521C55.8971 38.4476 57.4201 37.8085 58.8242 36.9556C59.0675 36.7967 59.3508 36.7099 59.6413 36.7051C59.9317 36.7003 60.2177 36.7778 60.4661 36.9286C61.3371 37.3917 62.2217 37.8296 63.0965 38.2791C64.5881 39.0605 64.5765 39.0509 65.7135 37.8451C66.0257 37.5132 66.0874 37.2373 65.8735 36.8283C65.2819 35.6997 64.7423 34.5421 64.1391 33.4135C63.9692 33.1359 63.8822 32.8155 63.8883 32.49C63.8945 32.1646 63.9935 31.8477 64.1738 31.5768C64.9854 30.237 65.5915 28.7828 65.9718 27.2629C66.0356 26.9552 66.1854 26.672 66.4038 26.4462C66.6221 26.2205 66.9 26.0614 67.2051 25.9876C68.1494 25.704 69.0917 25.4088 70.0244 25.0905C71.6374 24.5426 71.4485 24.9111 71.489 23.0667C71.5025 22.4686 71.2443 22.2081 70.7047 22.0538C69.5022 21.7084 68.3151 21.3129 67.1145 20.9599C66.8012 20.8818 66.5163 20.7167 66.2926 20.4836C66.0689 20.2504 65.9156 19.9587 65.8503 19.6422C65.4808 18.1448 64.8835 16.7133 64.0794 15.3977C63.8968 15.1277 63.7964 14.8105 63.7903 14.4845C63.7841 14.1585 63.8725 13.8378 64.0447 13.561C64.5284 12.6736 64.9851 11.7726 65.4495 10.8755C66.1587 9.50372 66.1394 9.52494 65.039 8.42525C64.6421 8.02974 64.3145 8.00466 63.8385 8.2574C62.7111 8.85355 61.5549 9.39375 60.4179 9.97254C60.1672 10.1187 59.8811 10.1929 59.5911 10.1867C59.3011 10.1806 59.0184 10.0945 58.7741 9.93782C57.3926 9.09491 55.8928 8.46409 54.3245 8.0664C54.0291 8.00389 53.7575 7.85919 53.5406 7.64895C53.3238 7.43871 53.1707 7.17146 53.0988 6.87795C52.8059 5.91331 52.4918 4.94866 52.1758 3.98401C51.6516 2.3962 51.9464 2.5872 50.2024 2.54862C49.6243 2.53511 49.3275 2.7319 49.1695 3.29718C48.8246 4.52422 48.4083 5.73003 48.048 6.9532C47.9741 7.25846 47.8146 7.5362 47.5882 7.75363C47.3618 7.97106 47.078 8.11908 46.7703 8.18023C45.2693 8.54109 43.8338 9.13408 42.5153 9.93782C42.2359 10.1282 41.9075 10.2335 41.5696 10.2411C41.2317 10.2486 40.8989 10.158 40.6113 9.98026C39.7442 9.50758 38.8615 9.06577 37.9867 8.61046C36.5664 7.87347 36.5799 7.88505 35.4814 9.02719C35.1249 9.39761 35.0536 9.70437 35.3061 10.1655C35.8977 11.2401 36.4431 12.3398 37.0038 13.4318C37.1887 13.7378 37.294 14.0854 37.3102 14.4427ZM29.4824 65.4475C29.4824 63.6686 29.4709 61.8898 29.4824 60.111C29.4824 59.5322 29.2589 59.3007 28.6673 59.3046C25.9694 59.3213 23.2747 59.3213 20.5832 59.3046C20.0166 59.3046 19.8258 59.5322 19.8277 60.0763C19.8393 63.6108 19.8393 67.1478 19.8277 70.6874C19.8277 71.2662 20.0339 71.4958 20.6275 71.4919C23.2984 71.4726 25.9694 71.4726 28.6403 71.4919C29.2685 71.4919 29.494 71.2585 29.4863 70.643C29.467 68.9105 29.4824 67.178 29.4824 65.4475ZM14.7383 24.5908C18.4949 24.5908 22.2501 24.5908 26.0041 24.5908C26.3259 24.5908 26.7614 24.7181 26.9117 24.3342C27.1135 23.7874 27.1203 23.1876 26.931 22.6364C26.7768 22.1734 26.2661 22.3528 25.9038 22.3528C18.5154 22.3451 11.1283 22.3451 3.74239 22.3528C2.52447 22.3528 2.52447 22.3528 2.52832 23.5953C2.52832 24.5696 2.55916 24.6005 3.55353 24.6005L14.7383 24.5908Z" fill="#0C4264"/><path d="M37.0482 44.3467C37.8421 44.3467 38.6361 44.3313 39.4281 44.3467C40.8484 44.3776 41.8563 45.2824 41.968 46.685C42.102 48.4349 42.102 50.1925 41.968 51.9423C41.8659 53.4047 40.9023 54.3327 39.4339 54.3694C37.7997 54.4157 36.1579 54.4195 34.5276 54.3694C33.0996 54.3231 32.1303 53.3912 32.0223 51.979C31.8817 50.2055 31.8817 48.4237 32.0223 46.6503C32.136 45.2805 33.1497 44.3834 34.5276 44.3486C35.3697 44.3371 36.2118 44.3467 37.0482 44.3467ZM36.9229 51.7166C37.5222 51.7166 38.1235 51.7031 38.7228 51.7166C39.22 51.7301 39.4069 51.5044 39.4012 51.0201C39.3838 49.9166 39.3857 48.813 39.4012 47.7095C39.4012 47.2271 39.2084 46.9995 38.7247 47.0033C37.5685 47.0111 36.4161 47.0111 35.2676 47.0033C34.7762 47.0033 34.5834 47.2271 34.5912 47.7095C34.6046 48.813 34.6066 49.9166 34.5912 51.0201C34.5912 51.5044 34.7723 51.7301 35.2695 51.7166C35.8226 51.7031 36.3756 51.7166 36.9287 51.7166H36.9229Z" fill="#0C4264"/><path d="M12.3815 44.3371C13.1523 44.3371 13.9232 44.3371 14.694 44.3371C16.2357 44.3622 17.309 45.3326 17.3649 46.8761C17.4266 48.5333 17.4266 50.1945 17.3649 51.8498C17.3071 53.3122 16.2742 54.3135 14.8019 54.3579C13.1677 54.41 11.5259 54.4138 9.89749 54.3579C8.33269 54.3019 7.35181 53.2138 7.34025 51.6279C7.32868 50.0845 7.32868 48.5469 7.34025 47.015C7.35373 45.4002 8.39629 44.3584 10.0054 44.3352C10.7839 44.3371 11.5779 44.3371 12.3815 44.3371ZM14.694 49.4208C14.694 48.842 14.694 48.2632 14.694 47.6845C14.7036 47.2484 14.536 47.0015 14.0696 47.0034C12.9134 47.0034 11.7571 47.0034 10.6124 47.0034C10.202 47.0034 9.98613 47.1963 9.98613 47.6169C9.98613 48.7912 9.98613 49.9662 9.98613 51.1418C9.98613 51.5276 10.1981 51.7051 10.5777 51.7032C11.7533 51.7032 12.9294 51.7032 14.1062 51.7032C14.5437 51.7032 14.694 51.4659 14.6844 51.0646C14.694 50.5244 14.694 49.9726 14.694 49.4208Z" fill="#0C4264"/><path d="M24.7148 44.3468C25.5088 44.3468 26.3028 44.3314 27.0948 44.3468C28.5748 44.3796 29.6424 45.4272 29.6636 46.9031C29.6867 48.5122 29.6867 50.1199 29.6636 51.7264C29.6462 53.1926 28.7001 54.275 27.2297 54.3463C25.5261 54.4293 23.8149 54.4235 22.1094 54.3463C20.6506 54.2865 19.6717 53.2312 19.6312 51.7514C19.5869 50.1443 19.583 48.5314 19.6312 46.9282C19.6794 45.3578 20.7585 44.3584 22.3291 44.3372C23.1346 44.3372 23.9286 44.3372 24.7148 44.3468ZM24.6397 51.7148C25.2178 51.7148 25.7959 51.7148 26.3741 51.7148C26.7845 51.7148 27.0061 51.5392 27.0061 51.1167C27.0061 49.9591 27.0061 48.8151 27.0061 47.6633C27.0061 47.2137 26.7865 47.0073 26.3413 47.0092C25.2133 47.0092 24.0853 47.0092 22.9573 47.0092C22.516 47.0092 22.2906 47.2022 22.2944 47.6555C22.3041 48.8131 22.2944 49.9572 22.2944 51.109C22.2944 51.5334 22.4871 51.7206 22.9111 51.7167C23.495 51.709 24.0712 51.7148 24.6474 51.7148H24.6397Z" fill="#0C4264"/><path d="M7.32486 35.7653C7.32486 34.9492 7.30559 34.1312 7.32486 33.3151C7.36725 31.9086 8.37897 30.834 9.78381 30.7935C11.4899 30.7459 13.1967 30.7459 14.9041 30.7935C16.2858 30.8359 17.3033 31.8913 17.3495 33.3402C17.4035 34.9724 17.4035 36.6058 17.3495 38.2406C17.2975 39.7724 16.2318 40.7834 14.694 40.8143C13.1087 40.8438 11.522 40.8438 9.93413 40.8143C8.37126 40.7834 7.34413 39.7107 7.31908 38.1422C7.30559 37.3493 7.31908 36.5563 7.31908 35.7634L7.32486 35.7653ZM14.6979 35.7441C14.6979 35.2154 14.6863 34.6868 14.6979 34.1601C14.7114 33.6894 14.5379 33.4405 14.033 33.4463C12.9057 33.4579 11.7783 33.4463 10.6491 33.4463C10.2039 33.4463 9.9823 33.6392 9.98423 34.0926C9.98423 35.2193 9.98423 36.3467 9.98423 37.4747C9.98423 37.9087 10.1577 38.1499 10.6221 38.148C11.7783 38.1403 12.9301 38.1403 14.0774 38.148C14.5514 38.148 14.7075 37.901 14.6979 37.4669C14.694 36.8939 14.694 36.319 14.694 35.7441H14.6979Z" fill="#0C4264"/><path d="M24.7149 40.8219C23.8978 40.8219 23.0788 40.845 22.2617 40.8219C20.7643 40.7698 19.7025 39.7801 19.6486 38.2829C19.5888 36.6276 19.5869 34.9665 19.6486 33.3112C19.7044 31.814 20.7817 30.8127 22.2713 30.7896C23.858 30.7651 25.4446 30.7651 27.0312 30.7896C28.6018 30.8127 29.654 31.87 29.6732 33.4308C29.6925 34.9916 29.6925 36.6025 29.6732 38.1884C29.654 39.7126 28.6172 40.7698 27.0948 40.8238C26.3028 40.845 25.5088 40.8219 24.7149 40.8219ZM24.6031 38.1479C25.1812 38.1479 25.7593 38.1479 26.3375 38.1479C26.7749 38.1479 27.0177 37.9781 27.0158 37.517C27.0158 36.3594 27.0158 35.2154 27.0158 34.0636C27.0158 33.6507 26.8231 33.4462 26.3991 33.4481C25.2429 33.4481 24.0905 33.4481 22.9419 33.4481C22.5373 33.4481 22.3099 33.6102 22.3118 34.0424C22.3118 35.2179 22.3118 36.3929 22.3118 37.5672C22.3118 38.0051 22.5565 38.146 22.9554 38.146C23.4989 38.144 24.0519 38.1479 24.6031 38.1479Z" fill="#0C4264"/><path d="M50.5378 37.0849C48.7477 37.0926 46.9739 36.7447 45.319 36.0615C43.6642 35.3782 42.1611 34.3731 40.8969 33.1044C39.6326 31.8356 38.6323 30.3284 37.9538 28.67C37.2753 27.0116 36.9321 25.2349 36.9441 23.4428C36.9436 21.6505 37.2968 19.8758 37.9833 18.2205C38.6699 16.5652 39.6763 15.0621 40.9448 13.7973C42.2133 12.5326 43.7188 11.5312 45.375 10.8506C47.0312 10.1701 48.8053 9.8238 50.5956 9.83167C54.2117 9.83934 57.677 11.2828 60.2313 13.8455C62.7856 16.4081 64.2201 19.8805 64.2201 23.5007C64.2171 25.2934 63.8603 27.0677 63.1702 28.7219C62.4801 30.3761 61.4704 31.8775 60.199 33.1398C58.9276 34.4021 57.4195 35.4004 55.7616 36.0774C54.1036 36.7545 52.3283 37.0968 50.5378 37.0849ZM39.7307 23.5007C39.7731 27.2693 41.3147 30.2713 44.3557 32.5067C44.6582 32.7285 45.0128 33.1646 45.3327 33.016C45.7335 32.8231 45.5023 32.279 45.5081 31.8932C45.5081 31.2874 45.641 30.67 45.0359 30.178C44.156 29.4798 43.4283 28.6083 42.898 27.6174C42.3677 26.6266 42.0459 25.5374 41.9526 24.4171C41.6404 21.147 42.8256 18.4575 45.4734 16.507C46.9669 15.4035 48.9537 16.2466 49.3603 18.0505C49.4401 18.4765 49.4731 18.9099 49.4586 19.3431C49.4586 20.1843 49.4393 21.0274 49.4779 21.8685C49.5068 22.5129 50.4125 23.3811 50.7555 23.1226C51.2431 22.756 51.7518 22.3798 51.7191 21.6235C51.6767 20.6396 51.6921 19.6499 51.7191 18.6659C51.7518 17.354 52.5593 16.3392 53.7425 16.0961C54.7234 15.9032 55.5212 16.2601 56.2593 16.889C57.1826 17.6808 57.9282 18.6591 58.4471 19.7597C58.9661 20.8603 59.2467 22.0584 59.2706 23.2753C59.2944 24.4921 59.0609 25.7003 58.5855 26.8204C58.11 27.9406 57.4033 28.9474 56.5117 29.7748C55.7833 30.452 55.4056 31.1021 55.5482 32.0629C55.5617 32.1575 55.5482 32.2559 55.5482 32.3504C55.5732 32.5838 55.4383 32.8867 55.658 33.0295C55.9278 33.2031 56.1494 32.9215 56.3614 32.7922C60.1462 30.4655 62.0983 26.0705 61.3718 21.5521C60.601 16.8408 56.452 12.8857 51.7364 12.55C44.6197 12.0465 39.6555 17.6222 39.7307 23.5007ZM46.7819 18.8704C46.4622 19.0054 46.1851 19.2248 45.9802 19.5052C43.5906 22.2525 44.1553 26.414 47.2405 28.5304C47.9073 28.9876 48.2195 29.5221 48.1887 30.3285C48.1501 31.3838 48.2021 32.4507 48.1713 33.5022C48.1559 34.0501 48.3929 34.2913 48.9036 34.3646C50.023 34.5295 51.1605 34.5295 52.2799 34.3646C52.8021 34.2874 53.016 34.0269 53.0006 33.4887C52.9697 32.5028 53.0372 31.515 52.9794 30.5311C52.9216 29.5876 53.2781 28.9876 54.0605 28.4359C57.1573 26.2693 57.5427 21.8473 54.9122 19.2331C54.787 19.1097 54.6926 18.8994 54.3746 18.9881C54.3746 19.9527 54.3842 20.9367 54.3746 21.9187C54.3553 23.3869 52.6807 25.5284 51.2681 25.893C51.1045 25.9324 50.9372 25.9544 50.769 25.9586C49.0134 26.0435 46.832 23.9831 46.7896 22.1772C46.7626 21.1065 46.7819 20.028 46.7819 18.8704Z" fill="#0C4264"/></g><defs><clipPath id="clip0_51_68"><rect width="74" height="74" fill="white"/></clipPath></defs></svg>